:FULLY-SPECIFIED
:FORCE-ALL-JOINTS-BE-3DOF
:DEGREES
815
root 2.1037 16.5132 22.8341 3.42279 6.69275 -7.48127
lfemur -35.1416 1.54981 1.28451
ltibia 21.8606 -0 0
lfoot -9.61904 16.5073 -0.0762439
ltoes 19.6061 -0 0
rfemur 3.55452 2.29761 21.2691
rtibia 23.3421 -0 0
rfoot -20.7651 -15.5342 -0.0699333
rtoes -26.8962 0 0
lowerback 0.00294593 6.67387 4.93943
upperback -0.471107 8.90788 -0.513348
thorax 0.359689 4.46197 -3.14135
lowerneck -5.43951 -2.16169 2.83176
upperneck 0.124727 -3.08563 1.84574
head 0.957052 -1.49709 0.0322435
lclavicle 1.55149e-15 -3.39388e-16 -2.2401e-33
lhumerus -53.8781 -6.68631 90.8387
lradius 54.5971 -0 0
lwrist 17.2798 0 0
lhand -8.50867 3.9864 0.173319
lfingers 7.12502 -0 0
lthumb 17.4143 33.1542 0.153229
rclavicle 1.55149e-15 -3.39388e-16 -2.2401e-33
rhumerus -29.4885 45.4822 -108.365
rradius 68.8032 -0 0
rwrist -1.46374 0 0
rhand -9.03945 -21.7639 -0.0369801
rfingers 7.12502 -0 0
rthumb 16.9029 -50.9528 -0.0190204
816
root 2.11741 16.5178 22.9562 3.59523 4.66411 -7.50355
lfemur -35.1427 1.20848 1.71979
ltibia 21.044 -0 0
lfoot -9.26662 16.3896 -0.0653451
ltoes 19.7045 -0 0
rfemur 4.09636 3.00902 21.3858
rtibia 22.5223 -0 0
rfoot -20.8436 -15.0498 -0.0599318
rtoes -26.9449 0 0
lowerback -0.026728 6.73242 5.10612
upperback -0.45647 8.98415 -0.418424
thorax 0.405476 4.50003 -3.12949
lowerneck -5.43855 -2.0334 2.9318
upperneck 0.194412 -2.92175 1.75593
head 0.972269 -1.41671 -0.00971086
lclavicle 1.42543e-15 -3.49085e-16 -1.92009e-33
lhumerus -53.8292 -6.54294 90.7281
lradius 54.1389 -0 0
lwrist 17.4043 0 0
lhand -8.14415 4.24489 0.148536
lfingers 7.12502 -0 0
lthumb 17.7658 33.3913 0.131321
rclavicle 1.42543e-15 -3.49085e-16 -1.92009e-33
rhumerus -29.4598 45.4058 -108.25
rradius 68.4799 -0 0
rwrist -1.67482 0 0
rhand -8.61468 -21.8112 -0.0316928
rfingers 7.12502 -0 0
rthumb 17.3125 -50.978 -0.0163011
817
root 2.13113 16.5223 23.0783 3.76807 2.63556 -7.53188
lfemur -35.1465 0.867168 2.15502
ltibia 20.2274 -0 0
lfoot -8.91423 16.2719 -0.0537221
ltoes 19.8029 -0 0
rfemur 4.64006 3.7193 21.5093
rtibia 21.7025 -0 0
rfoot -20.9219 -14.5654 -0.0492676
rtoes -26.9936 0 0
lowerback -0.0562339 6.79105 5.2728
upperback -0.441703 9.06039 -0.323462
thorax 0.451273 4.53808 -3.11759
lowerneck -5.43736 -1.90511 3.03183
upperneck 0.263829 -2.75777 1.66633
head 0.987426 -1.33633 -0.0516416
lclavicle 1.29937e-15 -3.58782e-16 -1.57874e-33
lhumerus -53.7805 -6.39947 90.6176
lradius 53.6808 -0 0
lwrist 17.5288 0 0
lhand -7.77974 4.50323 0.12211
lfingers 7.12502 -0 0
lthumb 18.1171 33.6283 0.107959
rclavicle 1.29937e-15 -3.58782e-16 -1.57874e-33
rhumerus -29.4313 45.3294 -108.136
rradius 68.1567 -0 0
rwrist -1.88589 0 0
rhand -8.18992 -21.8585 -0.0260547
rfingers 7.12502 -0 0
rthumb 17.7221 -51.0033 -0.0134013
818
root 2.14485 16.5269 23.2004 3.94174 0.607094 -7.56631
lfemur -35.1529 0.525893 2.59025
ltibia 19.4108 -0 0
lfoot -8.56186 16.1543 -0.0413756
ltoes 19.9013 -0 0
rfemur 5.18577 4.42837 21.6397
rtibia 20.8826 -0 0
rfoot -21.0002 -14.081 -0.0379415
rtoes -27.0422 0 0
lowerback -0.0855715 6.84976 5.43947
upperback -0.426805 9.13661 -0.228464
thorax 0.497079 4.57612 -3.10566
lowerneck -5.43594 -1.77683 3.13186
upperneck 0.332981 -2.59368 1.57694
head 1.00252 -1.25593 -0.0935489
lclavicle 1.17331e-15 -3.68479e-16 -1.21606e-33
lhumerus -53.7321 -6.2559 90.5073
lradius 53.2226 -0 0
lwrist 17.6533 0 0
lhand -7.41545 4.76139 0.0940414
lfingers 7.12502 -0 0
lthumb 18.4683 33.8651 0.0831446
rclavicle 1.17331e-15 -3.68479e-16 -1.21606e-33
rhumerus -29.403 45.253 -108.022
rradius 67.8335 -0 0
rwrist -2.09697 0 0
rhand -7.76516 -21.9058 -0.020066
rfingers 7.12502 -0 0
rthumb 18.1317 -51.0285 -0.0103211
819
root 2.15856 16.5315 23.3224 4.11668 -1.42126 -7.60689
lfemur -35.1619 0.184676 3.02551
ltibia 18.5943 -0 0
lfoot -8.20952 16.0367 -0.028306
ltoes 19.9997 -0 0
rfemur 5.73366 5.13617 21.777
rtibia 20.0628 -0 0
rfoot -21.0783 -13.5967 -0.0259542
rtoes -27.0909 0 0
lowerback -0.114741 6.90857 5.60612
upperback -0.411777 9.2128 -0.133429
thorax 0.542896 4.61415 -3.0937
lowerneck -5.43431 -1.64854 3.23188
upperneck 0.401867 -2.42948 1.48776
head 1.01756 -1.17553 -0.135433
lclavicle 1.04726e-15 -3.78175e-16 -8.32038e-34
lhumerus -53.6841 -6.11225 90.3972
lradius 52.7644 -0 0
lwrist 17.7778 0 0
lhand -7.05129 5.01936 0.0643324
lfingers 7.12502 -0 0
lthumb 18.8195 34.1018 0.0568791
rclavicle 1.04726e-15 -3.78175e-16 -8.32038e-34
rhumerus -29.375 45.1765 -107.909
rradius 67.5103 -0 0
rwrist -2.30804 0 0
rhand -7.34041 -21.953 -0.0137271
rfingers 7.12502 -0 0
rthumb 18.5412 -51.0537 -0.00706071
820
root 2.17228 16.536 23.4445 4.29331 -3.44947 -7.65374
lfemur -35.1734 -0.156462 3.46081
ltibia 17.7777 -0 0
lfoot -7.85721 15.9193 -0.014514
ltoes 20.098 -0 0
rfemur 6.28391 5.84262 21.9213
rtibia 19.2429 -0 0
rfoot -21.1564 -13.1123 -0.0133068
rtoes -27.1396 0 0
lowerback -0.143741 6.96745 5.77277
upperback -0.396618 9.28897 -0.0383576
thorax 0.588722 4.65217 -3.08171
lowerneck -5.43245 -1.52026 3.3319
upperneck 0.47049 -2.26518 1.39879
head 1.03254 -1.09511 -0.177294
lclavicle 9.21198e-16 -3.87872e-16 -4.26686e-34
lhumerus -53.6363 -5.9685 90.2872
lradius 52.3062 -0 0
lwrist 17.9022 0 0
lhand -6.68727 5.27714 0.0329846
lfingers 7.12502 -0 0
lthumb 19.1705 34.3383 0.0291637
rclavicle 9.21198e-16 -3.87872e-16 -4.26686e-34
rhumerus -29.3473 45.1 -107.795
rradius 67.187 -0 0
rwrist -2.51912 0 0
rhand -6.91566 -22.0002 -0.00703828
rfingers 7.12502 -0 0
rthumb 18.9508 -51.0789 -0.00362029
821
root 2.186 16.5406 23.5666 4.4721 -5.47753 352.293
lfemur -35.1876 -0.497503 3.8962
ltibia 16.9611 0 0
lfoot -7.50492 15.8019 0
ltoes 20.1964 0 0
rfemur 6.83668 6.54766 22.0726
rtibia 18.4231 0 0
rfoot -21.2343 -12.628 0
rtoes -27.1883 0 0
lowerback -0.172572 7.02642 5.93941
upperback -0.381328 9.3651 0.0567512
thorax 0.634559 4.69018 -3.06969
lowerneck -5.43036 -1.39198 3.43192
upperneck 0.538849 -2.10077 1.31002
head 1.04746 -1.01469 -0.219131
lclavicle 7.95139e-16 -3.97569e-16 0
lhumerus -53.5888 -5.82466 90.1773
lradius 51.848 0 0
lwrist 18.0267 0 0
lhand -6.3234 5.53472 0
lfingers 7.12502 0 0
lthumb 19.5214 34.5747 0
rclavicle 7.95139e-16 -3.97569e-16 0
rhumerus -29.3198 45.0234 -107.682
rradius 66.8638 0 0
rwrist -2.73019 0 0
rhand -6.49092 -22.0473 0
rfingers 7.12502 0 0
rthumb 19.3604 -771.104 0
822
root 2.23007 16.5419 23.7043 3.96082 -4.93916 -7.45038
lfemur -34.6159 -0.452388 3.30799
ltibia 17.3828 -0 0
lfoot -7.43752 14.7648 -0.025529
ltoes 20.2735 -0 0
rfemur 5.20706 6.62346 21.5927
rtibia 19.4486 -0 0
rfoot -20.5112 -12.3344 0.0760195
rtoes -26.5853 0 0
lowerback 0.129172 6.79418 5.70992
upperback -0.270991 9.07694 0.0409599
thorax 0.559646 4.54348 -2.95618
lowerneck -5.45471 -1.43978 3.4059
upperneck 0.725072 -2.16941 1.35948
head 1.1151 -1.04505 -0.204332
lclavicle 1.27301e-15 -8.53319e-16 7.60231e-32
lhumerus -53.2132 -6.23443 90.0086
lradius 51.9337 -0 0
lwrist 18.1434 0 0
lhand -5.9961 5.5058 -0.00331915
lfingers 7.12502 -0 0
lthumb 19.8346 34.4994 -0.00826818
rclavicle 1.27301e-15 -8.53319e-16 7.60231e-32
rhumerus -29.2419 43.7937 -106.191
rradius 66.5006 -0 0
rwrist -2.63818 0 0
rhand -6.6569 -22.2313 0.0106874
rfingers 7.12502 -0 0
rthumb 19.2006 -51.3009 0.0110138
823
root 2.27414 16.5432 23.8421 3.45237 -4.39853 -7.19879
lfemur -34.0447 -0.401409 2.72026
ltibia 17.8044 -0 0
lfoot -7.36968 13.7277 -0.049834
ltoes 20.3506 -0 0
rfemur 3.57663 6.68566 21.1107
rtibia 20.4741 -0 0
rfoot -19.7877 -12.0398 0.148327
rtoes -25.9824 0 0
lowerback 0.431708 6.56314 5.47931
upperback -0.160662 8.78881 0.0246195
thorax 0.484457 4.39694 -2.8425
lowerneck -5.47905 -1.4876 3.3799
upperneck 0.911245 -2.2382 1.40871
head 1.18273 -1.07542 -0.189569
lclavicle 1.75088e-15 -1.30907e-15 1.48245e-31
lhumerus -52.836 -6.64309 89.837
lradius 52.0195 -0 0
lwrist 18.2601 0 0
lhand -5.66881 5.47685 -0.00647301
lfingers 7.12502 -0 0
lthumb 20.1479 34.4241 -0.0161246
rclavicle 1.75088e-15 -1.30907e-15 1.48245e-31
rhumerus -29.209 42.563 -104.732
rradius 66.1374 -0 0
rwrist -2.54616 0 0
rhand -6.82291 -22.4153 0.0208416
rfingers 7.12502 -0 0
rthumb 19.0408 -51.4979 0.0214782
824
root 2.3182 16.5445 23.9798 2.94664 -3.85571 -6.95219
lfemur -33.4741 -0.344577 2.13307
ltibia 18.2261 -0 0
lfoot -7.3014 12.6905 -0.0729069
ltoes 20.4277 -0 0
rfemur 1.94554 6.73421 20.6271
rtibia 21.4997 -0 0
rfoot -19.0639 -11.7444 0.216908
rtoes -25.3794 0 0
lowerback 0.735039 6.33331 5.24758
upperback -0.0503333 8.50071 0.00773073
thorax 0.40899 4.25054 -2.72865
lowerneck -5.50336 -1.53543 3.35392
upperneck 1.09737 -2.30716 1.45773
head 1.25036 -1.10581 -0.174842
lclavicle 2.22876e-15 -1.76482e-15 2.16666e-31
lhumerus -52.4573 -7.05061 89.6625
lradius 52.1052 -0 0
lwrist 18.3767 0 0
lhand -5.34151 5.44789 -0.00946149
lfingers 7.12502 -0 0
lthumb 20.4612 34.3487 -0.0235689
rclavicle 2.22876e-15 -1.76482e-15 2.16666e-31
rhumerus -29.2185 41.3321 -103.302
rradius 65.7741 -0 0
rwrist -2.45415 0 0
rhand -6.98895 -22.5994 0.0304626
rfingers 7.12502 -0 0
rthumb 18.8809 -51.6949 0.0313931
